<mxfile host="app.diagrams.net" modified="2023-06-28T18:53:27.325Z" agent="Mozilla/5.0 (Macintosh; Intel Mac OS X 10_15_7) AppleWebKit/605.1.15 (KHTML, like Gecko) Version/16.5.1 Safari/605.1.15" etag="iJPxIc4EFaYvHrWARRwB" version="21.5.1" type="google">
  <diagram name="S1" id="oif4JocFaIs13oE4T7J2">
    <mxGraphModel grid="1" page="1" gridSize="10" guides="1" tooltips="1" connect="1" arrows="1" fold="1" pageScale="1" pageWidth="827" pageHeight="1169" math="0" shadow="0">
      <root>
        <mxCell id="0" />
        <mxCell id="1" parent="0" />
        <mxCell id="woUsNti0dxNjiIr3mZ_L-1" value="X" style="edgeStyle=orthogonalEdgeStyle;rounded=0;orthogonalLoop=1;jettySize=auto;html=1;exitX=0.5;exitY=1;exitDx=0;exitDy=0;entryX=0;entryY=0.5;entryDx=0;entryDy=0;" edge="1" parent="1" source="zRn9AbAPb96ZZckrNFZ4-1" target="zRn9AbAPb96ZZckrNFZ4-3">
          <mxGeometry relative="1" as="geometry" />
        </mxCell>
        <mxCell id="zRn9AbAPb96ZZckrNFZ4-1" value="&lt;font style=&quot;font-size: 23px;&quot;&gt;T1&lt;/font&gt;" style="ellipse;whiteSpace=wrap;html=1;aspect=fixed;" vertex="1" parent="1">
          <mxGeometry x="179" y="445" width="80" height="80" as="geometry" />
        </mxCell>
        <mxCell id="zRn9AbAPb96ZZckrNFZ4-2" value="&lt;font style=&quot;font-size: 23px;&quot;&gt;T2&lt;/font&gt;" style="ellipse;whiteSpace=wrap;html=1;aspect=fixed;" vertex="1" parent="1">
          <mxGeometry x="569" y="445" width="80" height="80" as="geometry" />
        </mxCell>
        <mxCell id="woUsNti0dxNjiIr3mZ_L-2" value="Z" style="edgeStyle=orthogonalEdgeStyle;rounded=0;orthogonalLoop=1;jettySize=auto;html=1;exitX=1;exitY=0.5;exitDx=0;exitDy=0;entryX=0.5;entryY=1;entryDx=0;entryDy=0;" edge="1" parent="1" source="zRn9AbAPb96ZZckrNFZ4-3" target="zRn9AbAPb96ZZckrNFZ4-2">
          <mxGeometry relative="1" as="geometry" />
        </mxCell>
        <mxCell id="zRn9AbAPb96ZZckrNFZ4-3" value="&lt;font style=&quot;font-size: 23px;&quot;&gt;T3&lt;/font&gt;" style="ellipse;whiteSpace=wrap;html=1;aspect=fixed;" vertex="1" parent="1">
          <mxGeometry x="374" y="645" width="80" height="80" as="geometry" />
        </mxCell>
      </root>
    </mxGraphModel>
  </diagram>
</mxfile>
